<svg width="340" height="134" viewBox="0 0 340 134" fill="none" xmlns="http://www.w3.org/2000/svg">
<path d="M183 134C269.709 134 340 104.003 340 67C340 29.9969 269.709 0 183 0C108.793 0 46.6112 21.9703 30.2224 51.5C26.4816 54.6667 15.2 61.2 0 62L27.1076 75C36.373 108.232 102.635 134 183 134Z" fill="#89C5CC" fill-opacity="0.2"/>
<path d="M30.5455 51.8816L30.6153 51.8226L30.6596 51.7426C38.7619 37.1437 58.2558 24.3215 85.0912 15.1495C111.901 5.98628 145.942 0.5 183 0.5C226.303 0.5 265.484 7.9914 293.82 20.0837C307.988 26.1303 319.422 33.3173 327.307 41.2725C335.19 49.2257 339.5 57.9191 339.5 67C339.5 76.0809 335.19 84.7743 327.307 92.7274C319.422 100.683 307.988 107.87 293.82 113.916C265.484 126.009 226.303 133.5 183 133.5C142.866 133.5 106.271 127.065 78.5697 116.495C64.7186 111.21 53.1061 104.896 44.3876 97.8495C35.667 90.801 29.8686 83.041 27.5892 74.8657L27.5283 74.6472L27.3238 74.5492L1.92512 62.3687C16.2816 61.1492 26.8873 54.9784 30.5455 51.8816Z" stroke="#89C5CC" stroke-opacity="0.4"/>
<path d="M63.6299 62L65.9077 51.292H67.1235L64.8457 62H63.6299ZM67.5049 62L69.9366 50.6035H71.1524L68.7281 62H67.5049ZM76.5148 62L75.548 53.9727H76.7784L77.2692 58.5942C77.2985 58.853 77.3253 59.146 77.3497 59.4731C77.3741 59.8003 77.3937 60.1079 77.4083 60.396C77.4279 60.6841 77.4376 60.9014 77.4376 61.0479H77.4816C77.589 60.8086 77.7135 60.5376 77.8551 60.2349C78.0016 59.9272 78.1481 59.6245 78.2946 59.3267C78.441 59.0239 78.5704 58.7651 78.6827 58.5503L81.1583 53.9727H82.462L78.0895 62H76.5148ZM84.6671 62.1465C84.2326 62.1465 83.8517 62.0415 83.5246 61.8315C83.1974 61.6216 82.9435 61.3115 82.7629 60.9014C82.5822 60.4912 82.4919 59.9907 82.4919 59.3999C82.4919 58.8091 82.5529 58.2402 82.675 57.6934C82.8019 57.1465 82.9801 56.6387 83.2096 56.1699C83.4391 55.7012 83.715 55.291 84.0373 54.9395C84.3644 54.5879 84.7306 54.3145 85.1359 54.1191C85.5412 53.9238 85.9782 53.8262 86.4469 53.8262C86.8083 53.8262 87.1208 53.8945 87.3844 54.0312C87.653 54.168 87.8752 54.3486 88.0509 54.5732C88.2316 54.793 88.3732 55.0273 88.4757 55.2764H88.549L89.0177 53.9727H89.9479L88.2487 62H87.2746L87.4943 60.4473H87.4357C87.216 60.7402 86.9645 61.0161 86.6813 61.2749C86.3981 61.5337 86.088 61.7437 85.7511 61.9048C85.4142 62.0659 85.0529 62.1465 84.6671 62.1465ZM85.0627 61.1357C85.4386 61.1357 85.8097 60.999 86.1759 60.7256C86.547 60.4473 86.8791 60.0737 87.172 59.605C87.4699 59.1313 87.6969 58.5991 87.8532 58.0083C87.9313 57.7202 87.9826 57.4565 88.007 57.2173C88.0363 56.9731 88.0509 56.7461 88.0509 56.5361C88.0509 56.0332 87.9167 55.6279 87.6481 55.3203C87.3844 55.0078 87.0231 54.8516 86.5641 54.8516C86.237 54.8516 85.9294 54.9346 85.6413 55.1006C85.3532 55.2617 85.092 55.4888 84.8576 55.7817C84.6281 56.0698 84.4303 56.4067 84.2643 56.7925C84.0983 57.1733 83.9689 57.5884 83.8761 58.0376C83.7882 58.4868 83.7443 58.9482 83.7443 59.4219C83.7443 59.9834 83.859 60.4106 84.0885 60.7036C84.318 60.9917 84.6427 61.1357 85.0627 61.1357ZM93.4353 65.6035C93.2449 65.6035 93.0691 65.5889 92.9079 65.5596C92.7468 65.5303 92.6052 65.4937 92.4831 65.4497V64.417C92.615 64.4658 92.7493 64.5049 92.886 64.5342C93.0227 64.5684 93.1692 64.5854 93.3254 64.5854C93.6868 64.5854 93.9675 64.4414 94.1677 64.1533C94.3679 63.8652 94.529 63.4478 94.6511 62.9009L96.3357 54.9028H94.9368L95.0393 54.3828L96.5261 53.936L96.7019 53.1597C96.8142 52.6616 96.9485 52.2441 97.1047 51.9072C97.2659 51.5654 97.4538 51.2944 97.6687 51.0942C97.8835 50.8892 98.1326 50.7427 98.4158 50.6548C98.7038 50.5669 99.0334 50.5229 99.4045 50.5229C99.6487 50.5229 99.8977 50.5522 100.152 50.6108C100.41 50.6646 100.62 50.728 100.781 50.8013L100.467 51.7314C100.32 51.6777 100.164 51.6313 99.9978 51.5923C99.8318 51.5483 99.6511 51.5264 99.4558 51.5264C99.0408 51.5264 98.7136 51.6436 98.4744 51.8779C98.24 52.1074 98.0544 52.5371 97.9177 53.167L97.7346 53.9727H99.4631L99.2873 54.9028H97.5515L95.8376 63.04C95.7204 63.5771 95.5618 64.0361 95.3616 64.417C95.1614 64.8027 94.905 65.0957 94.5925 65.2959C94.28 65.501 93.8943 65.6035 93.4353 65.6035ZM101.8 62.1465C101.366 62.1465 100.985 62.0415 100.658 61.8315C100.33 61.6216 100.076 61.3115 99.8958 60.9014C99.7151 60.4912 99.6248 59.9907 99.6248 59.3999C99.6248 58.8091 99.6858 58.2402 99.8079 57.6934C99.9348 57.1465 100.113 56.6387 100.343 56.1699C100.572 55.7012 100.848 55.291 101.17 54.9395C101.497 54.5879 101.864 54.3145 102.269 54.1191C102.674 53.9238 103.111 53.8262 103.58 53.8262C103.941 53.8262 104.254 53.8945 104.517 54.0312C104.786 54.168 105.008 54.3486 105.184 54.5732C105.365 54.793 105.506 55.0273 105.609 55.2764H105.682L106.151 53.9727H107.081L105.382 62H104.408L104.627 60.4473H104.569C104.349 60.7402 104.097 61.0161 103.814 61.2749C103.531 61.5337 103.221 61.7437 102.884 61.9048C102.547 62.0659 102.186 62.1465 101.8 62.1465ZM102.196 61.1357C102.572 61.1357 102.943 60.999 103.309 60.7256C103.68 60.4473 104.012 60.0737 104.305 59.605C104.603 59.1313 104.83 58.5991 104.986 58.0083C105.064 57.7202 105.116 57.4565 105.14 57.2173C105.169 56.9731 105.184 56.7461 105.184 56.5361C105.184 56.0332 105.05 55.6279 104.781 55.3203C104.517 55.0078 104.156 54.8516 103.697 54.8516C103.37 54.8516 103.062 54.9346 102.774 55.1006C102.486 55.2617 102.225 55.4888 101.991 55.7817C101.761 56.0698 101.563 56.4067 101.397 56.7925C101.231 57.1733 101.102 57.5884 101.009 58.0376C100.921 58.4868 100.877 58.9482 100.877 59.4219C100.877 59.9834 100.992 60.4106 101.221 60.7036C101.451 60.9917 101.776 61.1357 102.196 61.1357ZM107.814 62L110.245 50.6035H111.461L109.037 62H107.814ZM111.63 62L114.062 50.6035H115.278L112.853 62H111.63ZM118.735 62.1172C118.12 62.1172 117.59 61.9927 117.146 61.7437C116.702 61.4897 116.36 61.1333 116.121 60.6743C115.886 60.2104 115.769 59.6636 115.769 59.0337C115.769 58.5259 115.825 58.0254 115.937 57.5322C116.05 57.0342 116.216 56.5654 116.435 56.126C116.655 55.6816 116.926 55.291 117.248 54.9541C117.576 54.6123 117.952 54.3462 118.376 54.1558C118.801 53.9604 119.275 53.8628 119.797 53.8628C120.422 53.8628 120.954 53.9897 121.394 54.2437C121.838 54.4927 122.178 54.8491 122.412 55.313C122.651 55.7769 122.771 56.3262 122.771 56.9609C122.771 57.459 122.715 57.9546 122.602 58.4478C122.495 58.9409 122.331 59.4097 122.112 59.854C121.897 60.2935 121.626 60.6841 121.299 61.0259C120.976 61.3628 120.6 61.6289 120.171 61.8242C119.746 62.0195 119.267 62.1172 118.735 62.1172ZM118.808 61.1064C119.111 61.1064 119.399 61.043 119.673 60.916C119.946 60.7891 120.195 60.606 120.42 60.3667C120.644 60.1226 120.837 59.8271 120.998 59.4805C121.164 59.1289 121.291 58.731 121.379 58.2866C121.472 57.8423 121.518 57.354 121.518 56.8218C121.518 56.5044 121.462 56.1968 121.35 55.8989C121.238 55.6011 121.057 55.3569 120.808 55.1665C120.559 54.9712 120.227 54.8735 119.812 54.8735C119.47 54.8735 119.153 54.9443 118.86 55.0859C118.572 55.2275 118.313 55.4277 118.083 55.6865C117.854 55.9453 117.659 56.2505 117.497 56.6021C117.341 56.9536 117.219 57.3394 117.131 57.7593C117.048 58.1792 117.007 58.6211 117.007 59.085C117.007 59.7246 117.163 60.2227 117.475 60.5791C117.788 60.9307 118.232 61.1064 118.808 61.1064ZM123.936 62L125.643 53.9727H126.866L125.159 62H123.936ZM126.668 52.5664C126.473 52.5664 126.309 52.5103 126.177 52.3979C126.05 52.2808 125.987 52.1172 125.987 51.9072C125.987 51.7461 126.018 51.5947 126.082 51.4531C126.15 51.3115 126.246 51.1992 126.368 51.1162C126.495 51.0283 126.648 50.9844 126.829 50.9844C127.044 50.9844 127.205 51.0405 127.312 51.1528C127.42 51.2651 127.474 51.4214 127.474 51.6216C127.474 51.9097 127.391 52.1392 127.225 52.3101C127.059 52.481 126.873 52.5664 126.668 52.5664ZM127.752 62L129.459 53.9727H130.455L130.265 55.5254H130.338C130.543 55.2471 130.763 54.9785 130.997 54.7197C131.231 54.4561 131.498 54.2412 131.795 54.0752C132.098 53.9092 132.445 53.8262 132.835 53.8262C132.982 53.8262 133.131 53.8359 133.282 53.8555C133.434 53.8701 133.575 53.897 133.707 53.936L133.443 55.0273C133.312 54.998 133.182 54.9761 133.055 54.9614C132.933 54.9468 132.806 54.9395 132.674 54.9395C132.303 54.9395 131.959 55.0371 131.642 55.2324C131.324 55.4229 131.039 55.6792 130.785 56.0015C130.536 56.3237 130.323 56.6826 130.147 57.0781C129.977 57.4736 129.847 57.8765 129.759 58.2866L128.976 62H127.752ZM137.575 62L139.296 53.936H140.373L140.183 55.4814H140.197C140.383 55.2275 140.605 54.9712 140.864 54.7124C141.128 54.4487 141.433 54.229 141.779 54.0532C142.131 53.8726 142.529 53.7822 142.973 53.7822C143.403 53.7822 143.772 53.8628 144.079 54.0239C144.387 54.1802 144.624 54.4097 144.79 54.7124C144.956 55.0103 145.039 55.3716 145.039 55.7964C145.039 56.021 145.022 56.248 144.987 56.4775C144.953 56.707 144.917 56.9121 144.878 57.0928L143.808 62H142.512L143.596 56.9316C143.64 56.7119 143.674 56.5239 143.698 56.3677C143.728 56.2114 143.742 56.0649 143.742 55.9282C143.742 55.5864 143.649 55.3276 143.464 55.1519C143.278 54.9761 143.005 54.8882 142.644 54.8882C142.287 54.8882 141.911 55.0103 141.516 55.2544C141.12 55.4985 140.754 55.8843 140.417 56.4116C140.08 56.9341 139.819 57.6177 139.633 58.4624L138.879 62H137.575ZM149.566 62.1172C148.95 62.1172 148.421 61.9927 147.976 61.7437C147.532 61.4897 147.19 61.1333 146.951 60.6743C146.716 60.2104 146.599 59.6636 146.599 59.0337C146.599 58.5259 146.655 58.0254 146.768 57.5322C146.88 57.0342 147.046 56.5654 147.266 56.126C147.485 55.6816 147.756 55.291 148.079 54.9541C148.406 54.6123 148.782 54.3462 149.207 54.1558C149.631 53.9604 150.105 53.8628 150.628 53.8628C151.253 53.8628 151.785 53.9897 152.224 54.2437C152.669 54.4927 153.008 54.8491 153.242 55.313C153.482 55.7769 153.601 56.3262 153.601 56.9609C153.601 57.459 153.545 57.9546 153.433 58.4478C153.325 58.9409 153.162 59.4097 152.942 59.854C152.727 60.2935 152.456 60.6841 152.129 61.0259C151.807 61.3628 151.431 61.6289 151.001 61.8242C150.576 62.0195 150.098 62.1172 149.566 62.1172ZM149.639 61.1064C149.942 61.1064 150.23 61.043 150.503 60.916C150.776 60.7891 151.025 60.606 151.25 60.3667C151.475 60.1226 151.668 59.8271 151.829 59.4805C151.995 59.1289 152.122 58.731 152.21 58.2866C152.302 57.8423 152.349 57.354 152.349 56.8218C152.349 56.5044 152.293 56.1968 152.18 55.8989C152.068 55.6011 151.887 55.3569 151.638 55.1665C151.389 54.9712 151.057 54.8735 150.642 54.8735C150.3 54.8735 149.983 54.9443 149.69 55.0859C149.402 55.2275 149.143 55.4277 148.914 55.6865C148.684 55.9453 148.489 56.2505 148.328 56.6021C148.171 56.9536 148.049 57.3394 147.962 57.7593C147.879 58.1792 147.837 58.6211 147.837 59.085C147.837 59.7246 147.993 60.2227 148.306 60.5791C148.618 60.9307 149.063 61.1064 149.639 61.1064ZM157.176 62.1465C156.771 62.1465 156.417 62.0708 156.114 61.9194C155.811 61.7681 155.577 61.5459 155.411 61.2529C155.25 60.9551 155.169 60.5913 155.169 60.1616C155.169 59.9468 155.184 59.7393 155.213 59.5391C155.247 59.334 155.284 59.1216 155.323 58.9019L156.385 53.9727H157.615L156.524 59.041C156.485 59.251 156.453 59.439 156.429 59.605C156.409 59.7661 156.4 59.9102 156.4 60.0371C156.4 60.3838 156.487 60.6548 156.663 60.8501C156.844 61.0405 157.13 61.1357 157.52 61.1357C157.886 61.1357 158.27 61.0112 158.67 60.7622C159.075 60.5132 159.449 60.1226 159.791 59.5903C160.137 59.0532 160.401 58.3574 160.582 57.5029L161.329 53.9727H162.53L160.831 62H159.827L160.025 60.4473H159.959C159.774 60.7012 159.549 60.96 159.285 61.2236C159.022 61.4824 158.716 61.7021 158.37 61.8828C158.023 62.0586 157.625 62.1465 157.176 62.1465ZM165.343 62.1465C164.855 62.1465 164.425 62.0977 164.054 62C163.688 61.9023 163.368 61.7803 163.094 61.6338V60.5059C163.353 60.6621 163.68 60.8086 164.076 60.9453C164.476 61.082 164.886 61.1504 165.306 61.1504C165.721 61.1504 166.066 61.0942 166.339 60.9819C166.617 60.8696 166.825 60.7158 166.962 60.5205C167.103 60.3203 167.174 60.0884 167.174 59.8247C167.174 59.6147 167.128 59.4341 167.035 59.2827C166.947 59.1265 166.8 58.9751 166.595 58.8286C166.395 58.6821 166.127 58.5137 165.79 58.3232C165.414 58.1133 165.096 57.9009 164.838 57.686C164.579 57.4712 164.381 57.2368 164.244 56.9829C164.112 56.7241 164.047 56.4238 164.047 56.082C164.047 55.623 164.159 55.2251 164.383 54.8882C164.608 54.5513 164.923 54.29 165.328 54.1045C165.738 53.9189 166.217 53.8262 166.764 53.8262C167.247 53.8262 167.694 53.8823 168.104 53.9946C168.514 54.1021 168.868 54.2266 169.166 54.3682L168.771 55.3423C168.517 55.2202 168.226 55.1079 167.899 55.0054C167.572 54.9028 167.194 54.8516 166.764 54.8516C166.305 54.8516 165.939 54.9565 165.665 55.1665C165.397 55.3765 165.262 55.6597 165.262 56.0161C165.262 56.2017 165.301 56.3677 165.38 56.5142C165.463 56.6606 165.604 56.8071 165.804 56.9536C166.005 57.0952 166.278 57.2612 166.625 57.4517C166.962 57.647 167.264 57.8472 167.533 58.0522C167.806 58.2524 168.021 58.4844 168.177 58.748C168.339 59.0068 168.419 59.3267 168.419 59.7075C168.419 60.23 168.295 60.6743 168.046 61.0405C167.797 61.4019 167.44 61.6777 166.976 61.8682C166.517 62.0537 165.973 62.1465 165.343 62.1465ZM173.847 62L175.554 53.9727H176.55L176.36 55.5254H176.433C176.638 55.2471 176.858 54.9785 177.092 54.7197C177.326 54.4561 177.593 54.2412 177.89 54.0752C178.193 53.9092 178.54 53.8262 178.93 53.8262C179.077 53.8262 179.226 53.8359 179.377 53.8555C179.529 53.8701 179.67 53.897 179.802 53.936L179.538 55.0273C179.407 54.998 179.277 54.9761 179.15 54.9614C179.028 54.9468 178.901 54.9395 178.769 54.9395C178.398 54.9395 178.054 55.0371 177.737 55.2324C177.419 55.4229 177.134 55.6792 176.88 56.0015C176.631 56.3237 176.418 56.6826 176.242 57.0781C176.072 57.4736 175.942 57.8765 175.854 58.2866L175.071 62H173.847ZM182.278 62.1465C181.844 62.1465 181.463 62.0415 181.136 61.8315C180.808 61.6216 180.554 61.3115 180.374 60.9014C180.193 60.4912 180.103 59.9907 180.103 59.3999C180.103 58.8091 180.164 58.2402 180.286 57.6934C180.413 57.1465 180.591 56.6387 180.821 56.1699C181.05 55.7012 181.326 55.291 181.648 54.9395C181.975 54.5879 182.342 54.3145 182.747 54.1191C183.152 53.9238 183.589 53.8262 184.058 53.8262C184.419 53.8262 184.732 53.8945 184.995 54.0312C185.264 54.168 185.486 54.3486 185.662 54.5732C185.843 54.793 185.984 55.0273 186.087 55.2764H186.16L186.629 53.9727H187.559L185.86 62H184.886L185.105 60.4473H185.047C184.827 60.7402 184.575 61.0161 184.292 61.2749C184.009 61.5337 183.699 61.7437 183.362 61.9048C183.025 62.0659 182.664 62.1465 182.278 62.1465ZM182.674 61.1357C183.05 61.1357 183.421 60.999 183.787 60.7256C184.158 60.4473 184.49 60.0737 184.783 59.605C185.081 59.1313 185.308 58.5991 185.464 58.0083C185.542 57.7202 185.594 57.4565 185.618 57.2173C185.647 56.9731 185.662 56.7461 185.662 56.5361C185.662 56.0332 185.528 55.6279 185.259 55.3203C184.995 55.0078 184.634 54.8516 184.175 54.8516C183.848 54.8516 183.54 54.9346 183.252 55.1006C182.964 55.2617 182.703 55.4888 182.469 55.7817C182.239 56.0698 182.041 56.4067 181.875 56.7925C181.709 57.1733 181.58 57.5884 181.487 58.0376C181.399 58.4868 181.355 58.9482 181.355 59.4219C181.355 59.9834 181.47 60.4106 181.7 60.7036C181.929 60.9917 182.254 61.1357 182.674 61.1357ZM191.588 62.1465C190.992 62.1465 190.47 62.0342 190.02 61.8096C189.576 61.5801 189.229 61.2432 188.98 60.7988C188.736 60.3545 188.614 59.8027 188.614 59.1436C188.614 58.5723 188.675 58.0229 188.797 57.4956C188.924 56.9683 189.107 56.4824 189.347 56.0381C189.586 55.5938 189.876 55.2056 190.218 54.8735C190.56 54.5415 190.948 54.2852 191.383 54.1045C191.822 53.9189 192.301 53.8262 192.818 53.8262C193.165 53.8262 193.509 53.8604 193.851 53.9287C194.198 53.9922 194.51 54.085 194.788 54.207L194.444 55.2324C194.239 55.1348 193.997 55.0469 193.719 54.9688C193.441 54.8906 193.143 54.8516 192.826 54.8516C192.381 54.8516 191.976 54.9639 191.61 55.1885C191.248 55.4131 190.936 55.7256 190.672 56.126C190.413 56.5215 190.213 56.9756 190.072 57.4883C189.93 58.001 189.859 58.5479 189.859 59.1289C189.859 59.5439 189.932 59.9028 190.079 60.2056C190.225 60.5034 190.435 60.7329 190.709 60.894C190.987 61.0552 191.319 61.1357 191.705 61.1357C192.061 61.1357 192.396 61.0869 192.708 60.9893C193.026 60.8916 193.336 60.7744 193.639 60.6377V61.6777C193.37 61.8145 193.062 61.9268 192.716 62.0146C192.374 62.1025 191.998 62.1465 191.588 62.1465ZM198.4 62.1172C197.785 62.1172 197.255 61.9927 196.81 61.7437C196.366 61.4897 196.024 61.1333 195.785 60.6743C195.551 60.2104 195.433 59.6636 195.433 59.0337C195.433 58.5259 195.49 58.0254 195.602 57.5322C195.714 57.0342 195.88 56.5654 196.1 56.126C196.32 55.6816 196.591 55.291 196.913 54.9541C197.24 54.6123 197.616 54.3462 198.041 54.1558C198.466 53.9604 198.939 53.8628 199.462 53.8628C200.087 53.8628 200.619 53.9897 201.058 54.2437C201.503 54.4927 201.842 54.8491 202.077 55.313C202.316 55.7769 202.435 56.3262 202.435 56.9609C202.435 57.459 202.379 57.9546 202.267 58.4478C202.16 58.9409 201.996 59.4097 201.776 59.854C201.561 60.2935 201.29 60.6841 200.963 61.0259C200.641 61.3628 200.265 61.6289 199.835 61.8242C199.411 62.0195 198.932 62.1172 198.4 62.1172ZM198.473 61.1064C198.776 61.1064 199.064 61.043 199.337 60.916C199.611 60.7891 199.86 60.606 200.084 60.3667C200.309 60.1226 200.502 59.8271 200.663 59.4805C200.829 59.1289 200.956 58.731 201.044 58.2866C201.137 57.8423 201.183 57.354 201.183 56.8218C201.183 56.5044 201.127 56.1968 201.015 55.8989C200.902 55.6011 200.722 55.3569 200.473 55.1665C200.224 54.9712 199.891 54.8735 199.476 54.8735C199.135 54.8735 198.817 54.9443 198.524 55.0859C198.236 55.2275 197.977 55.4277 197.748 55.6865C197.518 55.9453 197.323 56.2505 197.162 56.6021C197.006 56.9536 196.884 57.3394 196.796 57.7593C196.713 58.1792 196.671 58.6211 196.671 59.085C196.671 59.7246 196.828 60.2227 197.14 60.5791C197.453 60.9307 197.897 61.1064 198.473 61.1064ZM203.549 62L205.27 53.936H206.347L206.157 55.4814H206.171C206.357 55.2275 206.579 54.9712 206.838 54.7124C207.101 54.4487 207.407 54.229 207.753 54.0532C208.105 53.8726 208.503 53.7822 208.947 53.7822C209.377 53.7822 209.746 53.8628 210.053 54.0239C210.361 54.1802 210.598 54.4097 210.764 54.7124C210.93 55.0103 211.013 55.3716 211.013 55.7964C211.013 56.021 210.996 56.248 210.961 56.4775C210.927 56.707 210.891 56.9121 210.851 57.0928L209.782 62H208.486L209.57 56.9316C209.614 56.7119 209.648 56.5239 209.672 56.3677C209.702 56.2114 209.716 56.0649 209.716 55.9282C209.716 55.5864 209.623 55.3276 209.438 55.1519C209.252 54.9761 208.979 54.8882 208.618 54.8882C208.261 54.8882 207.885 55.0103 207.49 55.2544C207.094 55.4985 206.728 55.8843 206.391 56.4116C206.054 56.9341 205.793 57.6177 205.607 58.4624L204.853 62H203.549ZM214.551 62.1465C214.019 62.1465 213.574 62.0195 213.218 61.7656C212.866 61.5068 212.69 61.0649 212.69 60.4399C212.69 60.2886 212.7 60.125 212.72 59.9492C212.739 59.7686 212.771 59.583 212.815 59.3926L213.76 54.9028H212.522L212.639 54.3389L213.972 53.8262L214.851 52.127H215.576L215.173 53.9727H217.239L217.048 54.9028H214.99L214.038 59.4072C214.004 59.5439 213.972 59.6904 213.943 59.8467C213.918 60.0029 213.906 60.1519 213.906 60.2935C213.906 60.5376 213.97 60.7427 214.097 60.9087C214.224 61.0698 214.436 61.1504 214.734 61.1504C214.919 61.1504 215.095 61.1333 215.261 61.0991C215.432 61.0649 215.613 61.0161 215.803 60.9526V61.8901C215.681 61.9487 215.496 62.0049 215.247 62.0586C215.002 62.1172 214.77 62.1465 214.551 62.1465ZM220.455 62.1465C219.854 62.1465 219.336 62.0269 218.902 61.7876C218.467 61.5435 218.133 61.1968 217.898 60.7476C217.669 60.2935 217.554 59.7515 217.554 59.1216C217.554 58.4722 217.647 57.835 217.833 57.21C218.023 56.5801 218.294 56.0112 218.646 55.5034C218.997 54.9907 219.419 54.583 219.913 54.2803C220.411 53.9775 220.967 53.8262 221.583 53.8262C222.32 53.8262 222.879 53.9922 223.26 54.3242C223.641 54.6514 223.831 55.103 223.831 55.6792C223.831 56.0845 223.736 56.458 223.545 56.7998C223.36 57.1416 223.072 57.4395 222.681 57.6934C222.295 57.9424 221.805 58.1377 221.209 58.2793C220.618 58.416 219.917 58.4844 219.107 58.4844H218.829C218.819 58.5723 218.809 58.6699 218.799 58.7773C218.794 58.8848 218.792 58.9849 218.792 59.0776C218.792 59.7222 218.948 60.2275 219.261 60.5938C219.573 60.9551 220.042 61.1357 220.667 61.1357C221.053 61.1357 221.417 61.082 221.758 60.9746C222.105 60.8623 222.466 60.7158 222.842 60.5352V61.5825C222.481 61.7485 222.117 61.8853 221.751 61.9927C221.385 62.0952 220.953 62.1465 220.455 62.1465ZM219.004 57.4883H219.18C219.805 57.4883 220.379 57.4346 220.901 57.3271C221.424 57.2148 221.844 57.0342 222.161 56.7852C222.479 56.5312 222.637 56.1943 222.637 55.7744C222.637 55.501 222.544 55.2764 222.359 55.1006C222.173 54.9248 221.89 54.8369 221.509 54.8369C221.172 54.8369 220.84 54.9419 220.513 55.1519C220.186 55.3569 219.888 55.6572 219.62 56.0527C219.356 56.4482 219.151 56.9268 219.004 57.4883ZM224.732 62L226.439 53.9727H227.435L227.245 55.5254H227.318C227.523 55.2471 227.743 54.9785 227.977 54.7197C228.211 54.4561 228.478 54.2412 228.775 54.0752C229.078 53.9092 229.425 53.8262 229.815 53.8262C229.962 53.8262 230.111 53.8359 230.262 53.8555C230.414 53.8701 230.555 53.897 230.687 53.936L230.423 55.0273C230.292 54.998 230.162 54.9761 230.035 54.9614C229.913 54.9468 229.786 54.9395 229.654 54.9395C229.283 54.9395 228.939 55.0371 228.622 55.2324C228.304 55.4229 228.019 55.6792 227.765 56.0015C227.516 56.3237 227.303 56.6826 227.127 57.0781C226.957 57.4736 226.827 57.8765 226.739 58.2866L225.956 62H224.732ZM237.016 62.1465C236.611 62.1465 236.257 62.0708 235.954 61.9194C235.651 61.7681 235.417 61.5459 235.251 61.2529C235.09 60.9551 235.009 60.5913 235.009 60.1616C235.009 59.9468 235.024 59.7393 235.053 59.5391C235.088 59.334 235.124 59.1216 235.163 58.9019L236.225 53.9727H237.456L236.364 59.041C236.325 59.251 236.294 59.439 236.269 59.605C236.25 59.7661 236.24 59.9102 236.24 60.0371C236.24 60.3838 236.328 60.6548 236.504 60.8501C236.684 61.0405 236.97 61.1357 237.36 61.1357C237.727 61.1357 238.11 61.0112 238.51 60.7622C238.916 60.5132 239.289 60.1226 239.631 59.5903C239.978 59.0532 240.241 58.3574 240.422 57.5029L241.169 53.9727H242.37L240.671 62H239.668L239.865 60.4473H239.799C239.614 60.7012 239.389 60.96 239.126 61.2236C238.862 61.4824 238.557 61.7021 238.21 61.8828C237.863 62.0586 237.465 62.1465 237.016 62.1465ZM243.22 62L244.942 53.936H246.018L245.828 55.4814H245.842C246.028 55.2275 246.25 54.9712 246.509 54.7124C246.773 54.4487 247.078 54.229 247.424 54.0532C247.776 53.8726 248.174 53.7822 248.618 53.7822C249.048 53.7822 249.417 53.8628 249.724 54.0239C250.032 54.1802 250.269 54.4097 250.435 54.7124C250.601 55.0103 250.684 55.3716 250.684 55.7964C250.684 56.021 250.667 56.248 250.632 56.4775C250.598 56.707 250.562 56.9121 250.523 57.0928L249.453 62H248.157L249.241 56.9316C249.285 56.7119 249.319 56.5239 249.343 56.3677C249.373 56.2114 249.387 56.0649 249.387 55.9282C249.387 55.5864 249.295 55.3276 249.109 55.1519C248.923 54.9761 248.65 54.8882 248.289 54.8882C247.932 54.8882 247.556 55.0103 247.161 55.2544C246.765 55.4985 246.399 55.8843 246.062 56.4116C245.725 56.9341 245.464 57.6177 245.278 58.4624L244.524 62H243.22ZM255.109 65.5889L257.562 53.9727H258.558L258.361 55.5327H258.412C258.641 55.23 258.893 54.9517 259.166 54.6978C259.445 54.439 259.747 54.2314 260.074 54.0752C260.406 53.9189 260.768 53.8408 261.158 53.8408C261.598 53.8408 261.981 53.9458 262.308 54.1558C262.635 54.3608 262.889 54.6685 263.07 55.0786C263.256 55.4839 263.348 55.9893 263.348 56.5947C263.348 57.1709 263.29 57.7324 263.173 58.2793C263.06 58.8213 262.894 59.3267 262.675 59.7954C262.455 60.2593 262.184 60.6694 261.862 61.0259C261.544 61.3774 261.18 61.6533 260.77 61.8535C260.36 62.0488 259.908 62.1465 259.415 62.1465C259.039 62.1465 258.715 62.0806 258.441 61.9487C258.173 61.812 257.946 61.6338 257.76 61.4141C257.579 61.1943 257.435 60.9575 257.328 60.7036H257.262C257.242 60.8843 257.211 61.1211 257.167 61.4141C257.128 61.7021 257.086 61.9438 257.042 62.1392L256.31 65.5889H255.109ZM259.327 61.1357C259.669 61.1357 259.982 61.0503 260.265 60.8794C260.553 60.7085 260.809 60.4766 261.034 60.1836C261.263 59.8857 261.456 59.5415 261.613 59.1509C261.774 58.7603 261.896 58.3452 261.979 57.9058C262.062 57.4663 262.103 57.0195 262.103 56.5654C262.103 55.999 261.989 55.5718 261.759 55.2837C261.534 54.9956 261.197 54.8516 260.748 54.8516C260.514 54.8516 260.277 54.9102 260.038 55.0273C259.799 55.1396 259.567 55.3008 259.342 55.5107C259.117 55.7158 258.907 55.96 258.712 56.2432C258.517 56.5264 258.346 56.8389 258.199 57.1807C258.058 57.5225 257.946 57.8838 257.863 58.2646C257.78 58.6455 257.738 59.0361 257.738 59.4365C257.738 59.9492 257.867 60.3618 258.126 60.6743C258.39 60.9819 258.79 61.1357 259.327 61.1357ZM267.765 62.1465C267.165 62.1465 266.647 62.0269 266.213 61.7876C265.778 61.5435 265.444 61.1968 265.209 60.7476C264.98 60.2935 264.865 59.7515 264.865 59.1216C264.865 58.4722 264.958 57.835 265.143 57.21C265.334 56.5801 265.605 56.0112 265.956 55.5034C266.308 54.9907 266.73 54.583 267.223 54.2803C267.721 53.9775 268.278 53.8262 268.893 53.8262C269.631 53.8262 270.19 53.9922 270.571 54.3242C270.951 54.6514 271.142 55.103 271.142 55.6792C271.142 56.0845 271.047 56.458 270.856 56.7998C270.671 57.1416 270.383 57.4395 269.992 57.6934C269.606 57.9424 269.116 58.1377 268.52 58.2793C267.929 58.416 267.228 58.4844 266.418 58.4844H266.139C266.13 58.5723 266.12 58.6699 266.11 58.7773C266.105 58.8848 266.103 58.9849 266.103 59.0776C266.103 59.7222 266.259 60.2275 266.572 60.5938C266.884 60.9551 267.353 61.1357 267.978 61.1357C268.364 61.1357 268.727 61.082 269.069 60.9746C269.416 60.8623 269.777 60.7158 270.153 60.5352V61.5825C269.792 61.7485 269.428 61.8853 269.062 61.9927C268.696 62.0952 268.263 62.1465 267.765 62.1465ZM266.315 57.4883H266.491C267.116 57.4883 267.69 57.4346 268.212 57.3271C268.735 57.2148 269.155 57.0342 269.472 56.7852C269.789 56.5312 269.948 56.1943 269.948 55.7744C269.948 55.501 269.855 55.2764 269.67 55.1006C269.484 54.9248 269.201 54.8369 268.82 54.8369C268.483 54.8369 268.151 54.9419 267.824 55.1519C267.497 55.3569 267.199 55.6572 266.93 56.0527C266.667 56.4482 266.462 56.9268 266.315 57.4883ZM274.453 62.1465C274.048 62.1465 273.694 62.0708 273.391 61.9194C273.088 61.7681 272.854 61.5459 272.688 61.2529C272.527 60.9551 272.446 60.5913 272.446 60.1616C272.446 59.9468 272.461 59.7393 272.49 59.5391C272.524 59.334 272.561 59.1216 272.6 58.9019L273.662 53.9727H274.892L273.801 59.041C273.762 59.251 273.73 59.439 273.706 59.605C273.686 59.7661 273.677 59.9102 273.677 60.0371C273.677 60.3838 273.764 60.6548 273.94 60.8501C274.121 61.0405 274.407 61.1357 274.797 61.1357C275.163 61.1357 275.547 61.0112 275.947 60.7622C276.352 60.5132 276.726 60.1226 277.068 59.5903C277.414 59.0532 277.678 58.3574 277.859 57.5029L278.606 53.9727H279.807L278.108 62H277.104L277.302 60.4473H277.236C277.051 60.7012 276.826 60.96 276.562 61.2236C276.299 61.4824 275.993 61.7021 275.647 61.8828C275.3 62.0586 274.902 62.1465 274.453 62.1465ZM66.7061 80.1465C66.1104 80.1465 65.5879 80.0342 65.1387 79.8096C64.6943 79.5801 64.3477 79.2432 64.0986 78.7988C63.8545 78.3545 63.7324 77.8027 63.7324 77.1436C63.7324 76.5723 63.7935 76.0229 63.9155 75.4956C64.0425 74.9683 64.2256 74.4824 64.4648 74.0381C64.7041 73.5938 64.9946 73.2056 65.3364 72.8735C65.6782 72.5415 66.0664 72.2852 66.501 72.1045C66.9404 71.9189 67.4189 71.8262 67.9365 71.8262C68.2832 71.8262 68.6274 71.8604 68.9692 71.9287C69.3159 71.9922 69.6284 72.085 69.9067 72.207L69.5625 73.2324C69.3574 73.1348 69.1157 73.0469 68.8374 72.9688C68.5591 72.8906 68.2612 72.8516 67.9438 72.8516C67.4995 72.8516 67.0942 72.9639 66.728 73.1885C66.3667 73.4131 66.0542 73.7256 65.7905 74.126C65.5317 74.5215 65.3315 74.9756 65.1899 75.4883C65.0483 76.001 64.9775 76.5479 64.9775 77.1289C64.9775 77.5439 65.0508 77.9028 65.1973 78.2056C65.3438 78.5034 65.5537 78.7329 65.8271 78.894C66.1055 79.0552 66.4375 79.1357 66.8232 79.1357C67.1797 79.1357 67.5142 79.0869 67.8267 78.9893C68.144 78.8916 68.4541 78.7744 68.7568 78.6377V79.6777C68.4883 79.8145 68.1807 79.9268 67.834 80.0146C67.4922 80.1025 67.1162 80.1465 66.7061 80.1465ZM73.5181 80.1172C72.9029 80.1172 72.3731 79.9927 71.9288 79.7437C71.4844 79.4897 71.1426 79.1333 70.9034 78.6743C70.669 78.2104 70.5518 77.6636 70.5518 77.0337C70.5518 76.5259 70.6079 76.0254 70.7203 75.5322C70.8326 75.0342 70.9986 74.5654 71.2183 74.126C71.438 73.6816 71.709 73.291 72.0313 72.9541C72.3584 72.6123 72.7344 72.3462 73.1592 72.1558C73.584 71.9604 74.0577 71.8628 74.5801 71.8628C75.2051 71.8628 75.7373 71.9897 76.1768 72.2437C76.6211 72.4927 76.9605 72.8491 77.1949 73.313C77.4341 73.7769 77.5538 74.3262 77.5538 74.9609C77.5538 75.459 77.4976 75.9546 77.3853 76.4478C77.2779 76.9409 77.1143 77.4097 76.8946 77.854C76.6797 78.2935 76.4087 78.6841 76.0816 79.0259C75.7593 79.3628 75.3833 79.6289 74.9537 79.8242C74.5288 80.0195 74.0503 80.1172 73.5181 80.1172ZM73.5913 79.1064C73.8941 79.1064 74.1822 79.043 74.4556 78.916C74.729 78.7891 74.9781 78.606 75.2027 78.3667C75.4273 78.1226 75.6202 77.8271 75.7813 77.4805C75.9473 77.1289 76.0743 76.731 76.1621 76.2866C76.2549 75.8423 76.3013 75.354 76.3013 74.8218C76.3013 74.5044 76.2452 74.1968 76.1329 73.8989C76.0205 73.6011 75.8399 73.3569 75.5909 73.1665C75.3418 72.9712 75.0098 72.8735 74.5948 72.8735C74.253 72.8735 73.9356 72.9443 73.6426 73.0859C73.3545 73.2275 73.0957 73.4277 72.8663 73.6865C72.6368 73.9453 72.4414 74.2505 72.2803 74.6021C72.1241 74.9536 72.002 75.3394 71.9141 75.7593C71.8311 76.1792 71.7896 76.6211 71.7896 77.085C71.7896 77.7246 71.9458 78.2227 72.2583 78.5791C72.5708 78.9307 73.0152 79.1064 73.5913 79.1064ZM78.7188 80L80.4254 71.9727H81.4215L81.231 73.5254H81.3043C81.4801 73.2715 81.6925 73.0151 81.9415 72.7563C82.1905 72.4927 82.4786 72.2729 82.8057 72.0972C83.1378 71.9165 83.5138 71.8262 83.9337 71.8262C84.5001 71.8262 84.9298 71.9897 85.2227 72.3169C85.5157 72.644 85.6866 73.0908 85.7354 73.6572H85.7867C85.982 73.3594 86.2164 73.0713 86.4898 72.793C86.7633 72.5098 87.0733 72.2778 87.42 72.0972C87.7716 71.9165 88.1573 71.8262 88.5772 71.8262C89.1973 71.8262 89.6759 71.9946 90.0128 72.3315C90.3497 72.6685 90.5181 73.1567 90.5181 73.7964C90.5181 74.0259 90.5035 74.2432 90.4742 74.4482C90.4498 74.6533 90.4107 74.8633 90.357 75.0781L89.317 80H88.0865L89.1705 74.9463C89.2144 74.7266 89.2462 74.5361 89.2657 74.375C89.2901 74.2139 89.3023 74.0601 89.3023 73.9136C89.3023 73.5864 89.2144 73.3276 89.0387 73.1372C88.8629 72.9468 88.5919 72.8516 88.2257 72.8516C87.9669 72.8516 87.6983 72.9224 87.42 73.064C87.1417 73.2056 86.8707 73.4204 86.607 73.7085C86.3482 73.9917 86.1138 74.3506 85.9039 74.7852C85.6939 75.2197 85.5255 75.73 85.3985 76.3159L84.6148 80H83.399L84.4683 74.9683C84.5123 74.7437 84.544 74.5508 84.5636 74.3896C84.588 74.2236 84.6002 74.082 84.6002 73.9648C84.6002 73.6182 84.5196 73.3472 84.3585 73.1519C84.1973 72.9517 83.9337 72.8516 83.5675 72.8516C83.3087 72.8516 83.0377 72.9199 82.7545 73.0566C82.4762 73.1934 82.2052 73.4082 81.9415 73.7012C81.6778 73.9941 81.4361 74.3677 81.2164 74.8218C80.9967 75.2759 80.8209 75.8228 80.689 76.4624L79.942 80H78.7188ZM91.8224 80L93.5289 71.9727H94.525L94.3346 73.5254H94.4078C94.5836 73.2715 94.796 73.0151 95.045 72.7563C95.2941 72.4927 95.5821 72.2729 95.9093 72.0972C96.2413 71.9165 96.6173 71.8262 97.0372 71.8262C97.6036 71.8262 98.0333 71.9897 98.3263 72.3169C98.6193 72.644 98.7902 73.0908 98.839 73.6572H98.8903C99.0856 73.3594 99.3199 73.0713 99.5934 72.793C99.8668 72.5098 100.177 72.2778 100.524 72.0972C100.875 71.9165 101.261 71.8262 101.681 71.8262C102.301 71.8262 102.779 71.9946 103.116 72.3315C103.453 72.6685 103.622 73.1567 103.622 73.7964C103.622 74.0259 103.607 74.2432 103.578 74.4482C103.553 74.6533 103.514 74.8633 103.461 75.0781L102.421 80H101.19L102.274 74.9463C102.318 74.7266 102.35 74.5361 102.369 74.375C102.394 74.2139 102.406 74.0601 102.406 73.9136C102.406 73.5864 102.318 73.3276 102.142 73.1372C101.966 72.9468 101.695 72.8516 101.329 72.8516C101.07 72.8516 100.802 72.9224 100.524 73.064C100.245 73.2056 99.9742 73.4204 99.7106 73.7085C99.4518 73.9917 99.2174 74.3506 99.0074 74.7852C98.7975 75.2197 98.629 75.73 98.5021 76.3159L97.7184 80H96.5026L97.5719 74.9683C97.6158 74.7437 97.6476 74.5508 97.6671 74.3896C97.6915 74.2236 97.7037 74.082 97.7037 73.9648C97.7037 73.6182 97.6232 73.3472 97.462 73.1519C97.3009 72.9517 97.0372 72.8516 96.671 72.8516C96.4122 72.8516 96.1412 72.9199 95.858 73.0566C95.5797 73.1934 95.3087 73.4082 95.045 73.7012C94.7814 73.9941 94.5397 74.3677 94.3199 74.8218C94.1002 75.2759 93.9244 75.8228 93.7926 76.4624L93.0455 80H91.8224ZM108.141 80.1465C107.541 80.1465 107.023 80.0269 106.589 79.7876C106.154 79.5435 105.819 79.1968 105.585 78.7476C105.356 78.2935 105.241 77.7515 105.241 77.1216C105.241 76.4722 105.334 75.835 105.519 75.21C105.71 74.5801 105.981 74.0112 106.332 73.5034C106.684 72.9907 107.106 72.583 107.599 72.2803C108.097 71.9775 108.654 71.8262 109.269 71.8262C110.007 71.8262 110.566 71.9922 110.946 72.3242C111.327 72.6514 111.518 73.103 111.518 73.6792C111.518 74.0845 111.423 74.458 111.232 74.7998C111.047 75.1416 110.758 75.4395 110.368 75.6934C109.982 75.9424 109.491 76.1377 108.896 76.2793C108.305 76.416 107.604 76.4844 106.794 76.4844H106.515C106.506 76.5723 106.496 76.6699 106.486 76.7773C106.481 76.8848 106.479 76.9849 106.479 77.0776C106.479 77.7222 106.635 78.2275 106.947 78.5938C107.26 78.9551 107.729 79.1357 108.354 79.1357C108.739 79.1357 109.103 79.082 109.445 78.9746C109.792 78.8623 110.153 78.7158 110.529 78.5352V79.5825C110.168 79.7485 109.804 79.8853 109.438 79.9927C109.071 80.0952 108.639 80.1465 108.141 80.1465ZM106.691 75.4883H106.867C107.492 75.4883 108.066 75.4346 108.588 75.3271C109.111 75.2148 109.53 75.0342 109.848 74.7852C110.165 74.5312 110.324 74.1943 110.324 73.7744C110.324 73.501 110.231 73.2764 110.046 73.1006C109.86 72.9248 109.577 72.8369 109.196 72.8369C108.859 72.8369 108.527 72.9419 108.2 73.1519C107.873 73.3569 107.575 73.6572 107.306 74.0527C107.043 74.4482 106.838 74.9268 106.691 75.4883ZM112.368 80L114.089 71.936H115.166L114.975 73.4814H114.99C115.175 73.2275 115.398 72.9712 115.656 72.7124C115.92 72.4487 116.225 72.229 116.572 72.0532C116.924 71.8726 117.321 71.7822 117.766 71.7822C118.196 71.7822 118.564 71.8628 118.872 72.0239C119.179 72.1802 119.416 72.4097 119.582 72.7124C119.748 73.0103 119.831 73.3716 119.831 73.7964C119.831 74.021 119.814 74.248 119.78 74.4775C119.746 74.707 119.709 74.9121 119.67 75.0928L118.601 80H117.304L118.388 74.9316C118.432 74.7119 118.467 74.5239 118.491 74.3677C118.52 74.2114 118.535 74.0649 118.535 73.9282C118.535 73.5864 118.442 73.3276 118.257 73.1519C118.071 72.9761 117.798 72.8882 117.436 72.8882C117.08 72.8882 116.704 73.0103 116.308 73.2544C115.913 73.4985 115.547 73.8843 115.21 74.4116C114.873 74.9341 114.612 75.6177 114.426 76.4624L113.672 80H112.368ZM123.369 80.1465C122.837 80.1465 122.393 80.0195 122.036 79.7656C121.685 79.5068 121.509 79.0649 121.509 78.4399C121.509 78.2886 121.519 78.125 121.538 77.9492C121.558 77.7686 121.59 77.583 121.634 77.3926L122.578 72.9028H121.341L121.458 72.3389L122.791 71.8262L123.67 70.127H124.395L123.992 71.9727H126.057L125.867 72.9028H123.809L122.857 77.4072C122.822 77.5439 122.791 77.6904 122.761 77.8467C122.737 78.0029 122.725 78.1519 122.725 78.2935C122.725 78.5376 122.788 78.7427 122.915 78.9087C123.042 79.0698 123.255 79.1504 123.552 79.1504C123.738 79.1504 123.914 79.1333 124.08 79.0991C124.251 79.0649 124.431 79.0161 124.622 78.9526V79.8901C124.5 79.9487 124.314 80.0049 124.065 80.0586C123.821 80.1172 123.589 80.1465 123.369 80.1465ZM131.237 80L130.27 71.9727H131.5L131.991 76.5942C132.02 76.853 132.047 77.146 132.072 77.4731C132.096 77.8003 132.116 78.1079 132.13 78.396C132.15 78.6841 132.159 78.9014 132.159 79.0479H132.203C132.311 78.8086 132.435 78.5376 132.577 78.2349C132.723 77.9272 132.87 77.6245 133.016 77.3267C133.163 77.0239 133.292 76.7651 133.405 76.5503L135.88 71.9727H137.184L132.811 80H131.237ZM140.187 80.1172C139.572 80.1172 139.042 79.9927 138.598 79.7437C138.154 79.4897 137.812 79.1333 137.573 78.6743C137.338 78.2104 137.221 77.6636 137.221 77.0337C137.221 76.5259 137.277 76.0254 137.39 75.5322C137.502 75.0342 137.668 74.5654 137.888 74.126C138.107 73.6816 138.378 73.291 138.701 72.9541C139.028 72.6123 139.404 72.3462 139.828 72.1558C140.253 71.9604 140.727 71.8628 141.249 71.8628C141.874 71.8628 142.407 71.9897 142.846 72.2437C143.29 72.4927 143.63 72.8491 143.864 73.313C144.103 73.7769 144.223 74.3262 144.223 74.9609C144.223 75.459 144.167 75.9546 144.055 76.4478C143.947 76.9409 143.784 77.4097 143.564 77.854C143.349 78.2935 143.078 78.6841 142.751 79.0259C142.429 79.3628 142.053 79.6289 141.623 79.8242C141.198 80.0195 140.72 80.1172 140.187 80.1172ZM140.261 79.1064C140.563 79.1064 140.851 79.043 141.125 78.916C141.398 78.7891 141.647 78.606 141.872 78.3667C142.097 78.1226 142.289 77.8271 142.451 77.4805C142.617 77.1289 142.744 76.731 142.831 76.2866C142.924 75.8423 142.971 75.354 142.971 74.8218C142.971 74.5044 142.914 74.1968 142.802 73.8989C142.69 73.6011 142.509 73.3569 142.26 73.1665C142.011 72.9712 141.679 72.8735 141.264 72.8735C140.922 72.8735 140.605 72.9443 140.312 73.0859C140.024 73.2275 139.765 73.4277 139.536 73.6865C139.306 73.9453 139.111 74.2505 138.95 74.6021C138.793 74.9536 138.671 75.3394 138.583 75.7593C138.5 76.1792 138.459 76.6211 138.459 77.085C138.459 77.7246 138.615 78.2227 138.928 78.5791C139.24 78.9307 139.684 79.1064 140.261 79.1064ZM147.798 80.1465C147.392 80.1465 147.038 80.0708 146.736 79.9194C146.433 79.7681 146.199 79.5459 146.033 79.2529C145.871 78.9551 145.791 78.5913 145.791 78.1616C145.791 77.9468 145.806 77.7393 145.835 77.5391C145.869 77.334 145.906 77.1216 145.945 76.9019L147.007 71.9727H148.237L147.146 77.041C147.107 77.251 147.075 77.439 147.051 77.605C147.031 77.7661 147.021 77.9102 147.021 78.0371C147.021 78.3838 147.109 78.6548 147.285 78.8501C147.466 79.0405 147.751 79.1357 148.142 79.1357C148.508 79.1357 148.892 79.0112 149.292 78.7622C149.697 78.5132 150.071 78.1226 150.412 77.5903C150.759 77.0532 151.023 76.3574 151.204 75.5029L151.951 71.9727H153.152L151.453 80H150.449L150.647 78.4473H150.581C150.395 78.7012 150.171 78.96 149.907 79.2236C149.643 79.4824 149.338 79.7021 148.992 79.8828C148.645 80.0586 148.247 80.1465 147.798 80.1465ZM155.965 80.1465C155.477 80.1465 155.047 80.0977 154.676 80C154.31 79.9023 153.99 79.7803 153.716 79.6338V78.5059C153.975 78.6621 154.302 78.8086 154.698 78.9453C155.098 79.082 155.508 79.1504 155.928 79.1504C156.343 79.1504 156.687 79.0942 156.961 78.9819C157.239 78.8696 157.447 78.7158 157.583 78.5205C157.725 78.3203 157.796 78.0884 157.796 77.8247C157.796 77.6147 157.749 77.4341 157.657 77.2827C157.569 77.1265 157.422 76.9751 157.217 76.8286C157.017 76.6821 156.748 76.5137 156.412 76.3232C156.036 76.1133 155.718 75.9009 155.459 75.686C155.201 75.4712 155.003 75.2368 154.866 74.9829C154.734 74.7241 154.668 74.4238 154.668 74.082C154.668 73.623 154.781 73.2251 155.005 72.8882C155.23 72.5513 155.545 72.29 155.95 72.1045C156.36 71.9189 156.839 71.8262 157.386 71.8262C157.869 71.8262 158.316 71.8823 158.726 71.9946C159.136 72.1021 159.49 72.2266 159.788 72.3682L159.393 73.3423C159.139 73.2202 158.848 73.1079 158.521 73.0054C158.194 72.9028 157.815 72.8516 157.386 72.8516C156.927 72.8516 156.56 72.9565 156.287 73.1665C156.018 73.3765 155.884 73.6597 155.884 74.0161C155.884 74.2017 155.923 74.3677 156.001 74.5142C156.084 74.6606 156.226 74.8071 156.426 74.9536C156.626 75.0952 156.9 75.2612 157.247 75.4517C157.583 75.647 157.886 75.8472 158.155 76.0522C158.428 76.2524 158.643 76.4844 158.799 76.748C158.96 77.0068 159.041 77.3267 159.041 77.7075C159.041 78.23 158.916 78.6743 158.667 79.0405C158.418 79.4019 158.062 79.6777 157.598 79.8682C157.139 80.0537 156.595 80.1465 155.965 80.1465ZM164.469 80L166.176 71.9727H167.399L165.692 80H164.469ZM167.201 70.5664C167.006 70.5664 166.842 70.5103 166.71 70.3979C166.584 70.2808 166.52 70.1172 166.52 69.9072C166.52 69.7461 166.552 69.5947 166.615 69.4531C166.684 69.3115 166.779 69.1992 166.901 69.1162C167.028 69.0283 167.182 68.9844 167.362 68.9844C167.577 68.9844 167.738 69.0405 167.846 69.1528C167.953 69.2651 168.007 69.4214 168.007 69.6216C168.007 69.9097 167.924 70.1392 167.758 70.3101C167.592 70.481 167.406 70.5664 167.201 70.5664ZM168.286 80L169.992 71.9727H170.988L170.798 73.5254H170.871C171.047 73.2715 171.259 73.0151 171.508 72.7563C171.757 72.4927 172.045 72.2729 172.373 72.0972C172.705 71.9165 173.081 71.8262 173.501 71.8262C174.067 71.8262 174.497 71.9897 174.79 72.3169C175.083 72.644 175.253 73.0908 175.302 73.6572H175.354C175.549 73.3594 175.783 73.0713 176.057 72.793C176.33 72.5098 176.64 72.2778 176.987 72.0972C177.338 71.9165 177.724 71.8262 178.144 71.8262C178.764 71.8262 179.243 71.9946 179.58 72.3315C179.917 72.6685 180.085 73.1567 180.085 73.7964C180.085 74.0259 180.07 74.2432 180.041 74.4482C180.017 74.6533 179.978 74.8633 179.924 75.0781L178.884 80H177.653L178.737 74.9463C178.781 74.7266 178.813 74.5361 178.833 74.375C178.857 74.2139 178.869 74.0601 178.869 73.9136C178.869 73.5864 178.781 73.3276 178.606 73.1372C178.43 72.9468 178.159 72.8516 177.793 72.8516C177.534 72.8516 177.265 72.9224 176.987 73.064C176.709 73.2056 176.438 73.4204 176.174 73.7085C175.915 73.9917 175.681 74.3506 175.471 74.7852C175.261 75.2197 175.092 75.73 174.965 76.3159L174.182 80H172.966L174.035 74.9683C174.079 74.7437 174.111 74.5508 174.13 74.3896C174.155 74.2236 174.167 74.082 174.167 73.9648C174.167 73.6182 174.086 73.3472 173.925 73.1519C173.764 72.9517 173.501 72.8516 173.134 72.8516C172.876 72.8516 172.605 72.9199 172.321 73.0566C172.043 73.1934 171.772 73.4082 171.508 73.7012C171.245 73.9941 171.003 74.3677 170.783 74.8218C170.564 75.2759 170.388 75.8228 170.256 76.4624L169.509 80H168.286ZM183.865 80.1465C183.43 80.1465 183.049 80.0415 182.722 79.8315C182.395 79.6216 182.141 79.3115 181.961 78.9014C181.78 78.4912 181.69 77.9907 181.69 77.3999C181.69 76.8091 181.751 76.2402 181.873 75.6934C182 75.1465 182.178 74.6387 182.407 74.1699C182.637 73.7012 182.913 73.291 183.235 72.9395C183.562 72.5879 183.928 72.3145 184.334 72.1191C184.739 71.9238 185.176 71.8262 185.645 71.8262C186.006 71.8262 186.318 71.8945 186.582 72.0312C186.851 72.168 187.073 72.3486 187.249 72.5732C187.429 72.793 187.571 73.0273 187.673 73.2764H187.747L188.215 71.9727H189.146L187.446 80H186.472L186.692 78.4473H186.633C186.414 78.7402 186.162 79.0161 185.879 79.2749C185.596 79.5337 185.286 79.7437 184.949 79.9048C184.612 80.0659 184.251 80.1465 183.865 80.1465ZM184.26 79.1357C184.636 79.1357 185.007 78.999 185.374 78.7256C185.745 78.4473 186.077 78.0737 186.37 77.605C186.668 77.1313 186.895 76.5991 187.051 76.0083C187.129 75.7202 187.18 75.4565 187.205 75.2173C187.234 74.9731 187.249 74.7461 187.249 74.5361C187.249 74.0332 187.114 73.6279 186.846 73.3203C186.582 73.0078 186.221 72.8516 185.762 72.8516C185.435 72.8516 185.127 72.9346 184.839 73.1006C184.551 73.2617 184.29 73.4888 184.055 73.7817C183.826 74.0698 183.628 74.4067 183.462 74.7925C183.296 75.1733 183.167 75.5884 183.074 76.0376C182.986 76.4868 182.942 76.9482 182.942 77.4219C182.942 77.9834 183.057 78.4106 183.286 78.7036C183.516 78.9917 183.84 79.1357 184.26 79.1357ZM191.79 83.6035C190.848 83.6035 190.11 83.4229 189.578 83.0615C189.046 82.7051 188.78 82.2021 188.78 81.5527C188.78 81.0303 188.958 80.5762 189.315 80.1904C189.666 79.8096 190.233 79.4897 191.014 79.231C190.828 79.1333 190.687 79.0112 190.589 78.8647C190.496 78.7134 190.45 78.54 190.45 78.3447C190.45 78.0127 190.572 77.7271 190.816 77.4878C191.06 77.2437 191.402 77.019 191.841 76.814C191.529 76.6528 191.277 76.416 191.087 76.1035C190.897 75.791 190.801 75.4321 190.801 75.0269C190.806 74.5435 190.889 74.1016 191.05 73.7012C191.212 73.3008 191.439 72.959 191.732 72.6758C192.005 72.4121 192.325 72.207 192.691 72.0605C193.062 71.9141 193.465 71.8408 193.9 71.8408C194.085 71.8408 194.271 71.853 194.456 71.8774C194.642 71.9019 194.825 71.9385 195.006 71.9873H197.715L197.54 72.7271L195.95 72.8882C196.063 73.0396 196.146 73.2178 196.199 73.4229C196.258 73.6279 196.285 73.855 196.28 74.104C196.28 74.5825 196.199 75.0146 196.038 75.4004C195.877 75.7861 195.648 76.1133 195.35 76.3818C195.081 76.6211 194.761 76.8066 194.39 76.9385C194.024 77.0654 193.614 77.1313 193.16 77.1362C193.028 77.1362 192.911 77.1313 192.808 77.1216C192.706 77.1118 192.618 77.0972 192.545 77.0776C192.188 77.2046 191.924 77.3535 191.754 77.5244C191.583 77.6953 191.497 77.876 191.497 78.0664C191.497 78.2031 191.539 78.313 191.622 78.396C191.7 78.4692 191.807 78.5254 191.944 78.5645C192.086 78.5986 192.259 78.6279 192.464 78.6523L193.328 78.7476C193.914 78.8159 194.393 78.9331 194.764 79.0991C195.135 79.2603 195.408 79.48 195.584 79.7583C195.76 80.0366 195.848 80.3809 195.848 80.791C195.848 81.3086 195.728 81.7554 195.489 82.1313C195.25 82.5122 194.905 82.8223 194.456 83.0615C194.114 83.2373 193.719 83.3716 193.27 83.4644C192.825 83.5571 192.332 83.6035 191.79 83.6035ZM191.841 82.7173C192.286 82.7173 192.681 82.6782 193.028 82.6001C193.38 82.522 193.677 82.4097 193.922 82.2632C194.185 82.1021 194.385 81.9067 194.522 81.6772C194.664 81.4478 194.735 81.1841 194.735 80.8862C194.735 80.7544 194.713 80.6348 194.669 80.5273C194.63 80.4199 194.566 80.3247 194.478 80.2417C194.341 80.1099 194.146 80.0024 193.892 79.9194C193.638 79.8364 193.316 79.7778 192.925 79.7437L191.754 79.6265C191.343 79.7144 190.999 79.8438 190.721 80.0146C190.447 80.1904 190.24 80.3979 190.098 80.6372C189.957 80.8765 189.886 81.145 189.886 81.4429C189.886 81.8433 190.052 82.1558 190.384 82.3804C190.716 82.605 191.202 82.7173 191.841 82.7173ZM193.211 76.3306C193.631 76.3306 193.985 76.2256 194.273 76.0156C194.566 75.8008 194.791 75.5176 194.947 75.166C195.103 74.8096 195.181 74.4214 195.181 74.0015C195.181 73.7915 195.152 73.606 195.093 73.4448C195.04 73.2788 194.957 73.1421 194.844 73.0347C194.737 72.9224 194.6 72.8369 194.434 72.7783C194.273 72.7197 194.088 72.6904 193.878 72.6904C193.57 72.6904 193.294 72.7515 193.05 72.8735C192.806 72.9907 192.598 73.1543 192.427 73.3643C192.261 73.5742 192.132 73.8184 192.039 74.0967C191.951 74.375 191.907 74.6729 191.907 74.9902C191.907 75.1953 191.934 75.3784 191.988 75.5396C192.042 75.7007 192.12 75.8374 192.222 75.9497C192.447 76.2036 192.777 76.3306 193.211 76.3306ZM197.709 80L199.415 71.9727H200.638L198.932 80H197.709ZM200.441 70.5664C200.245 70.5664 200.082 70.5103 199.95 70.3979C199.823 70.2808 199.759 70.1172 199.759 69.9072C199.759 69.7461 199.791 69.5947 199.855 69.4531C199.923 69.3115 200.018 69.1992 200.14 69.1162C200.267 69.0283 200.421 68.9844 200.602 68.9844C200.817 68.9844 200.978 69.0405 201.085 69.1528C201.193 69.2651 201.246 69.4214 201.246 69.6216C201.246 69.9097 201.163 70.1392 200.997 70.3101C200.831 70.481 200.646 70.5664 200.441 70.5664ZM201.474 80L203.195 71.936H204.272L204.081 73.4814H204.096C204.281 73.2275 204.504 72.9712 204.762 72.7124C205.026 72.4487 205.331 72.229 205.678 72.0532C206.03 71.8726 206.427 71.7822 206.872 71.7822C207.301 71.7822 207.67 71.8628 207.978 72.0239C208.285 72.1802 208.522 72.4097 208.688 72.7124C208.854 73.0103 208.937 73.3716 208.937 73.7964C208.937 74.021 208.92 74.248 208.886 74.4775C208.852 74.707 208.815 74.9121 208.776 75.0928L207.707 80H206.41L207.494 74.9316C207.538 74.7119 207.572 74.5239 207.597 74.3677C207.626 74.2114 207.641 74.0649 207.641 73.9282C207.641 73.5864 207.548 73.3276 207.363 73.1519C207.177 72.9761 206.904 72.8882 206.542 72.8882C206.186 72.8882 205.81 73.0103 205.414 73.2544C205.019 73.4985 204.653 73.8843 204.316 74.4116C203.979 74.9341 203.717 75.6177 203.532 76.4624L202.778 80H201.474ZM213.406 80.1465C212.805 80.1465 212.287 80.0269 211.853 79.7876C211.418 79.5435 211.084 79.1968 210.849 78.7476C210.62 78.2935 210.505 77.7515 210.505 77.1216C210.505 76.4722 210.598 75.835 210.783 75.21C210.974 74.5801 211.245 74.0112 211.596 73.5034C211.948 72.9907 212.37 72.583 212.864 72.2803C213.362 71.9775 213.918 71.8262 214.533 71.8262C215.271 71.8262 215.83 71.9922 216.211 72.3242C216.592 72.6514 216.782 73.103 216.782 73.6792C216.782 74.0845 216.687 74.458 216.496 74.7998C216.311 75.1416 216.023 75.4395 215.632 75.6934C215.246 75.9424 214.756 76.1377 214.16 76.2793C213.569 76.416 212.868 76.4844 212.058 76.4844H211.78C211.77 76.5723 211.76 76.6699 211.75 76.7773C211.745 76.8848 211.743 76.9849 211.743 77.0776C211.743 77.7222 211.899 78.2275 212.212 78.5938C212.524 78.9551 212.993 79.1357 213.618 79.1357C214.004 79.1357 214.367 79.082 214.709 78.9746C215.056 78.8623 215.417 78.7158 215.793 78.5352V79.5825C215.432 79.7485 215.068 79.8853 214.702 79.9927C214.336 80.0952 213.904 80.1465 213.406 80.1465ZM211.955 75.4883H212.131C212.756 75.4883 213.33 75.4346 213.852 75.3271C214.375 75.2148 214.795 75.0342 215.112 74.7852C215.429 74.5312 215.588 74.1943 215.588 73.7744C215.588 73.501 215.495 73.2764 215.31 73.1006C215.124 72.9248 214.841 72.8369 214.46 72.8369C214.123 72.8369 213.791 72.9419 213.464 73.1519C213.137 73.3569 212.839 73.6572 212.571 74.0527C212.307 74.4482 212.102 74.9268 211.955 75.4883ZM217.032 80L217.2 79.1724L222.312 72.8955H218.775L218.965 71.9727H223.836L223.645 72.9468L218.614 79.0771H222.532L222.349 80H217.032ZM228.275 80L230.707 68.6035H231.923L229.498 80H228.275ZM235.322 80.1465C234.721 80.1465 234.204 80.0269 233.769 79.7876C233.334 79.5435 233 79.1968 232.766 78.7476C232.536 78.2935 232.421 77.7515 232.421 77.1216C232.421 76.4722 232.514 75.835 232.7 75.21C232.89 74.5801 233.161 74.0112 233.513 73.5034C233.864 72.9907 234.287 72.583 234.78 72.2803C235.278 71.9775 235.834 71.8262 236.45 71.8262C237.187 71.8262 237.746 71.9922 238.127 72.3242C238.508 72.6514 238.698 73.103 238.698 73.6792C238.698 74.0845 238.603 74.458 238.413 74.7998C238.227 75.1416 237.939 75.4395 237.548 75.6934C237.163 75.9424 236.672 76.1377 236.076 76.2793C235.485 76.416 234.785 76.4844 233.974 76.4844H233.696C233.686 76.5723 233.676 76.6699 233.666 76.7773C233.662 76.8848 233.659 76.9849 233.659 77.0776C233.659 77.7222 233.815 78.2275 234.128 78.5938C234.44 78.9551 234.909 79.1357 235.534 79.1357C235.92 79.1357 236.284 79.082 236.625 78.9746C236.972 78.8623 237.333 78.7158 237.709 78.5352V79.5825C237.348 79.7485 236.984 79.8853 236.618 79.9927C236.252 80.0952 235.82 80.1465 235.322 80.1465ZM233.872 75.4883H234.047C234.672 75.4883 235.246 75.4346 235.768 75.3271C236.291 75.2148 236.711 75.0342 237.028 74.7852C237.346 74.5312 237.504 74.1943 237.504 73.7744C237.504 73.501 237.412 73.2764 237.226 73.1006C237.04 72.9248 236.757 72.8369 236.376 72.8369C236.039 72.8369 235.707 72.9419 235.38 73.1519C235.053 73.3569 234.755 73.6572 234.487 74.0527C234.223 74.4482 234.018 74.9268 233.872 75.4883ZM241.511 80.1465C241.023 80.1465 240.593 80.0977 240.222 80C239.856 79.9023 239.536 79.7803 239.263 79.6338V78.5059C239.521 78.6621 239.849 78.8086 240.244 78.9453C240.644 79.082 241.055 79.1504 241.475 79.1504C241.89 79.1504 242.234 79.0942 242.507 78.9819C242.786 78.8696 242.993 78.7158 243.13 78.5205C243.271 78.3203 243.342 78.0884 243.342 77.8247C243.342 77.6147 243.296 77.4341 243.203 77.2827C243.115 77.1265 242.969 76.9751 242.764 76.8286C242.563 76.6821 242.295 76.5137 241.958 76.3232C241.582 76.1133 241.265 75.9009 241.006 75.686C240.747 75.4712 240.549 75.2368 240.413 74.9829C240.281 74.7241 240.215 74.4238 240.215 74.082C240.215 73.623 240.327 73.2251 240.552 72.8882C240.776 72.5513 241.091 72.29 241.497 72.1045C241.907 71.9189 242.385 71.8262 242.932 71.8262C243.415 71.8262 243.862 71.8823 244.272 71.9946C244.683 72.1021 245.037 72.2266 245.334 72.3682L244.939 73.3423C244.685 73.2202 244.394 73.1079 244.067 73.0054C243.74 72.9028 243.362 72.8516 242.932 72.8516C242.473 72.8516 242.107 72.9565 241.833 73.1665C241.565 73.3765 241.431 73.6597 241.431 74.0161C241.431 74.2017 241.47 74.3677 241.548 74.5142C241.631 74.6606 241.772 74.8071 241.973 74.9536C242.173 75.0952 242.446 75.2612 242.793 75.4517C243.13 75.647 243.433 75.8472 243.701 76.0522C243.975 76.2524 244.189 76.4844 244.346 76.748C244.507 77.0068 244.587 77.3267 244.587 77.7075C244.587 78.23 244.463 78.6743 244.214 79.0405C243.965 79.4019 243.608 79.6777 243.144 79.8682C242.686 80.0537 242.141 80.1465 241.511 80.1465ZM253.297 80.1465C252.701 80.1465 252.179 80.0342 251.73 79.8096C251.285 79.5801 250.939 79.2432 250.689 78.7988C250.445 78.3545 250.323 77.8027 250.323 77.1436C250.323 76.5723 250.384 76.0229 250.506 75.4956C250.633 74.9683 250.816 74.4824 251.056 74.0381C251.295 73.5938 251.585 73.2056 251.927 72.8735C252.269 72.5415 252.657 72.2852 253.092 72.1045C253.531 71.9189 254.01 71.8262 254.527 71.8262C254.874 71.8262 255.218 71.8604 255.56 71.9287C255.907 71.9922 256.219 72.085 256.498 72.207L256.153 73.2324C255.948 73.1348 255.707 73.0469 255.428 72.9688C255.15 72.8906 254.852 72.8516 254.535 72.8516C254.09 72.8516 253.685 72.9639 253.319 73.1885C252.958 73.4131 252.645 73.7256 252.381 74.126C252.123 74.5215 251.922 74.9756 251.781 75.4883C251.639 76.001 251.568 76.5479 251.568 77.1289C251.568 77.5439 251.642 77.9028 251.788 78.2056C251.935 78.5034 252.145 78.7329 252.418 78.894C252.696 79.0552 253.028 79.1357 253.414 79.1357C253.771 79.1357 254.105 79.0869 254.418 78.9893C254.735 78.8916 255.045 78.7744 255.348 78.6377V79.6777C255.079 79.8145 254.772 79.9268 254.425 80.0146C254.083 80.1025 253.707 80.1465 253.297 80.1465ZM256.835 80L259.252 68.6035H260.468L259.823 71.5625C259.784 71.7725 259.735 71.9897 259.677 72.2144C259.623 72.4341 259.567 72.6562 259.508 72.8809C259.45 73.1006 259.391 73.3179 259.333 73.5327H259.406C259.596 73.2739 259.821 73.0151 260.08 72.7563C260.343 72.4976 260.649 72.2803 260.995 72.1045C261.347 71.9287 261.742 71.8408 262.182 71.8408C262.602 71.8408 262.961 71.9165 263.258 72.0679C263.561 72.2192 263.793 72.4463 263.954 72.749C264.12 73.0469 264.203 73.4229 264.203 73.877C264.203 74.0674 264.189 74.2627 264.159 74.4629C264.13 74.6582 264.093 74.8633 264.049 75.0781L262.995 80H261.772L262.841 74.9463C262.89 74.7266 262.924 74.5386 262.943 74.3823C262.963 74.2261 262.973 74.0894 262.973 73.9722C262.973 73.6157 262.882 73.3398 262.702 73.1445C262.526 72.9492 262.243 72.8516 261.852 72.8516C261.486 72.8516 261.1 72.9761 260.695 73.2251C260.295 73.4692 259.923 73.8574 259.582 74.3896C259.245 74.917 258.986 75.6079 258.805 76.4624L258.058 80H256.835ZM268.774 80.1172C268.159 80.1172 267.629 79.9927 267.185 79.7437C266.74 79.4897 266.399 79.1333 266.159 78.6743C265.925 78.2104 265.808 77.6636 265.808 77.0337C265.808 76.5259 265.864 76.0254 265.976 75.5322C266.089 75.0342 266.255 74.5654 266.474 74.126C266.694 73.6816 266.965 73.291 267.287 72.9541C267.614 72.6123 267.99 72.3462 268.415 72.1558C268.84 71.9604 269.314 71.8628 269.836 71.8628C270.461 71.8628 270.993 71.9897 271.433 72.2437C271.877 72.4927 272.216 72.8491 272.451 73.313C272.69 73.7769 272.81 74.3262 272.81 74.9609C272.81 75.459 272.754 75.9546 272.641 76.4478C272.534 76.9409 272.37 77.4097 272.151 77.854C271.936 78.2935 271.665 78.6841 271.338 79.0259C271.015 79.3628 270.639 79.6289 270.21 79.8242C269.785 80.0195 269.306 80.1172 268.774 80.1172ZM268.847 79.1064C269.15 79.1064 269.438 79.043 269.712 78.916C269.985 78.7891 270.234 78.606 270.459 78.3667C270.683 78.1226 270.876 77.8271 271.037 77.4805C271.203 77.1289 271.33 76.731 271.418 76.2866C271.511 75.8423 271.557 75.354 271.557 74.8218C271.557 74.5044 271.501 74.1968 271.389 73.8989C271.276 73.6011 271.096 73.3569 270.847 73.1665C270.598 72.9712 270.266 72.8735 269.851 72.8735C269.509 72.8735 269.192 72.9443 268.899 73.0859C268.61 73.2275 268.352 73.4277 268.122 73.6865C267.893 73.9453 267.697 74.2505 267.536 74.6021C267.38 74.9536 267.258 75.3394 267.17 75.7593C267.087 76.1792 267.046 76.6211 267.046 77.085C267.046 77.7246 267.202 78.2227 267.514 78.5791C267.827 78.9307 268.271 79.1064 268.847 79.1064ZM275.886 80.1465C275.398 80.1465 274.968 80.0977 274.597 80C274.231 79.9023 273.911 79.7803 273.638 79.6338V78.5059C273.897 78.6621 274.224 78.8086 274.619 78.9453C275.02 79.082 275.43 79.1504 275.85 79.1504C276.265 79.1504 276.609 79.0942 276.882 78.9819C277.161 78.8696 277.368 78.7158 277.505 78.5205C277.647 78.3203 277.717 78.0884 277.717 77.8247C277.717 77.6147 277.671 77.4341 277.578 77.2827C277.49 77.1265 277.344 76.9751 277.139 76.8286C276.939 76.6821 276.67 76.5137 276.333 76.3232C275.957 76.1133 275.64 75.9009 275.381 75.686C275.122 75.4712 274.924 75.2368 274.788 74.9829C274.656 74.7241 274.59 74.4238 274.59 74.082C274.59 73.623 274.702 73.2251 274.927 72.8882C275.152 72.5513 275.466 72.29 275.872 72.1045C276.282 71.9189 276.76 71.8262 277.307 71.8262C277.791 71.8262 278.237 71.8823 278.648 71.9946C279.058 72.1021 279.412 72.2266 279.71 72.3682L279.314 73.3423C279.06 73.2202 278.77 73.1079 278.443 73.0054C278.115 72.9028 277.737 72.8516 277.307 72.8516C276.848 72.8516 276.482 72.9565 276.209 73.1665C275.94 73.3765 275.806 73.6597 275.806 74.0161C275.806 74.2017 275.845 74.3677 275.923 74.5142C276.006 74.6606 276.148 74.8071 276.348 74.9536C276.548 75.0952 276.821 75.2612 277.168 75.4517C277.505 75.647 277.808 75.8472 278.076 76.0522C278.35 76.2524 278.565 76.4844 278.721 76.748C278.882 77.0068 278.963 77.3267 278.963 77.7075C278.963 78.23 278.838 78.6743 278.589 79.0405C278.34 79.4019 277.984 79.6777 277.52 79.8682C277.061 80.0537 276.516 80.1465 275.886 80.1465ZM283.687 80.1465C283.087 80.1465 282.569 80.0269 282.134 79.7876C281.7 79.5435 281.365 79.1968 281.131 78.7476C280.902 78.2935 280.787 77.7515 280.787 77.1216C280.787 76.4722 280.88 75.835 281.065 75.21C281.256 74.5801 281.527 74.0112 281.878 73.5034C282.23 72.9907 282.652 72.583 283.145 72.2803C283.643 71.9775 284.2 71.8262 284.815 71.8262C285.552 71.8262 286.112 71.9922 286.492 72.3242C286.873 72.6514 287.064 73.103 287.064 73.6792C287.064 74.0845 286.968 74.458 286.778 74.7998C286.592 75.1416 286.304 75.4395 285.914 75.6934C285.528 75.9424 285.037 76.1377 284.442 76.2793C283.851 76.416 283.15 76.4844 282.34 76.4844H282.061C282.051 76.5723 282.042 76.6699 282.032 76.7773C282.027 76.8848 282.025 76.9849 282.025 77.0776C282.025 77.7222 282.181 78.2275 282.493 78.5938C282.806 78.9551 283.275 79.1357 283.9 79.1357C284.285 79.1357 284.649 79.082 284.991 78.9746C285.338 78.8623 285.699 78.7158 286.075 78.5352V79.5825C285.714 79.7485 285.35 79.8853 284.984 79.9927C284.617 80.0952 284.185 80.1465 283.687 80.1465ZM282.237 75.4883H282.413C283.038 75.4883 283.612 75.4346 284.134 75.3271C284.656 75.2148 285.076 75.0342 285.394 74.7852C285.711 74.5312 285.87 74.1943 285.87 73.7744C285.87 73.501 285.777 73.2764 285.592 73.1006C285.406 72.9248 285.123 72.8369 284.742 72.8369C284.405 72.8369 284.073 72.9419 283.746 73.1519C283.419 73.3569 283.121 73.6572 282.852 74.0527C282.589 74.4482 282.383 74.9268 282.237 75.4883ZM289.877 80.1465C289.388 80.1465 288.959 80.0977 288.588 80C288.221 79.9023 287.902 79.7803 287.628 79.6338V78.5059C287.887 78.6621 288.214 78.8086 288.61 78.9453C289.01 79.082 289.42 79.1504 289.84 79.1504C290.255 79.1504 290.599 79.0942 290.873 78.9819C291.151 78.8696 291.359 78.7158 291.495 78.5205C291.637 78.3203 291.708 78.0884 291.708 77.8247C291.708 77.6147 291.661 77.4341 291.569 77.2827C291.481 77.1265 291.334 76.9751 291.129 76.8286C290.929 76.6821 290.66 76.5137 290.323 76.3232C289.947 76.1133 289.63 75.9009 289.371 75.686C289.113 75.4712 288.915 75.2368 288.778 74.9829C288.646 74.7241 288.58 74.4238 288.58 74.082C288.58 73.623 288.693 73.2251 288.917 72.8882C289.142 72.5513 289.457 72.29 289.862 72.1045C290.272 71.9189 290.751 71.8262 291.298 71.8262C291.781 71.8262 292.228 71.8823 292.638 71.9946C293.048 72.1021 293.402 72.2266 293.7 72.3682L293.304 73.3423C293.051 73.2202 292.76 73.1079 292.433 73.0054C292.106 72.9028 291.727 72.8516 291.298 72.8516C290.839 72.8516 290.472 72.9565 290.199 73.1665C289.93 73.3765 289.796 73.6597 289.796 74.0161C289.796 74.2017 289.835 74.3677 289.913 74.5142C289.996 74.6606 290.138 74.8071 290.338 74.9536C290.538 75.0952 290.812 75.2612 291.158 75.4517C291.495 75.647 291.798 75.8472 292.067 76.0522C292.34 76.2524 292.555 76.4844 292.711 76.748C292.872 77.0068 292.953 77.3267 292.953 77.7075C292.953 78.23 292.828 78.6743 292.579 79.0405C292.33 79.4019 291.974 79.6777 291.51 79.8682C291.051 80.0537 290.507 80.1465 289.877 80.1465ZM295.085 80.2051C294.855 80.2051 294.677 80.1392 294.55 80.0073C294.423 79.8804 294.36 79.6997 294.36 79.4653C294.36 79.1577 294.445 78.8867 294.616 78.6523C294.792 78.4131 295.065 78.2935 295.436 78.2935C295.641 78.2935 295.807 78.3569 295.934 78.4839C296.061 78.6108 296.125 78.7964 296.125 79.0405C296.125 79.3286 296.039 79.5947 295.868 79.8389C295.698 80.083 295.436 80.2051 295.085 80.2051ZM298.872 80.2051C298.642 80.2051 298.464 80.1392 298.337 80.0073C298.21 79.8804 298.147 79.6997 298.147 79.4653C298.147 79.1577 298.232 78.8867 298.403 78.6523C298.579 78.4131 298.852 78.2935 299.223 78.2935C299.429 78.2935 299.595 78.3569 299.721 78.4839C299.848 78.6108 299.912 78.7964 299.912 79.0405C299.912 79.3286 299.826 79.5947 299.656 79.8389C299.485 80.083 299.223 80.2051 298.872 80.2051Z" fill="black"/>
</svg>
